HIERARCHY
ROOT Hips
{
     OFFSET 12.06070 97.17400 -7.25333
     CHANNELS 6 Xposition Yposition Zposition Zrotation Xrotation Yrotation
     JOINT Spine
     {
          OFFSET 0.00000 11.89050 0.00000
          CHANNELS 3 Zrotation Xrotation Yrotation
          JOINT Spine1
          {
               OFFSET -0.00000 25.65740 0.12766
               CHANNELS 3 Zrotation Xrotation Yrotation
               JOINT HEad
               {
                    OFFSET -0.00000 8.73416 0.01134
                    CHANNELS 3 Zrotation Xrotation Yrotation
                    End Site
                    {
                         OFFSET -0.29000 12.77420 2.51395
                    }
               }
               JOINT LeftShoulder1
               {
                    OFFSET 8.99000 -0.36225 -0.22000
                    CHANNELS 3 Zrotation Xrotation Yrotation
                    JOINT LeftArm
                    {
                         OFFSET 10.28270 -0.00338 0.32212
                         CHANNELS 3 Zrotation Xrotation Yrotation
                         JOINT LeftForeArm
                         {
                              OFFSET 32.76690 0.09914 -1.42434
                              CHANNELS 3 Zrotation Xrotation Yrotation
                              JOINT LeftHand
                              {
                                   OFFSET 27.56430 0.08536 1.02216
                                   CHANNELS 3 Zrotation Xrotation Yrotation
                                   End Site
                                   {
                                        OFFSET 16.74430 -0.60000 1.50291
                                   }
                              }
                         }
                    }
               }
               JOINT RightShoulder
               {
                    OFFSET -8.99000 -0.36225 -0.22000
                    CHANNELS 3 Zrotation Xrotation Yrotation
                    JOINT RightArm
                    {
                         OFFSET -10.28270 -0.00338 0.32212
                         CHANNELS 3 Zrotation Xrotation Yrotation
                         JOINT RightForeArm
                         {
                              OFFSET -32.89710 0.09914 -1.42434
                              CHANNELS 3 Zrotation Xrotation Yrotation
                              JOINT RightHand
                              {
                                   OFFSET -27.49210 0.08536 1.02216
                                   CHANNELS 3 Zrotation Xrotation Yrotation
                                   End Site
                                   {
                                        OFFSET -16.63120 -0.60000 1.50291
                                   }
                              }
                         }
                    }
               }
          }
     }
     JOINT LeftUpLeg
     {
          OFFSET 8.94580 -8.66707 0.10165
          CHANNELS 3 Zrotation Xrotation Yrotation
          JOINT LeftLeg
          {
               OFFSET 0.00000 -44.42270 1.37270
               CHANNELS 3 Zrotation Xrotation Yrotation
               JOINT LeftFoot
               {
                    OFFSET -0.25355 -42.09240 -1.46059
                    CHANNELS 3 Zrotation Xrotation Yrotation
                    JOINT LeftToes
                    {
                         OFFSET -0.04000 -4.41509 8.49910
                         CHANNELS 3 Zrotation Xrotation Yrotation
                         End Site
                         {
                              OFFSET 0.08000 -0.04745 9.77979
                         }
                    }
               }
          }
     }
     JOINT RightUpLeg
     {
          OFFSET -8.94580 -8.66707 0.10165
          CHANNELS 3 Zrotation Xrotation Yrotation
          JOINT RightLeg
          {
               OFFSET 0.00000 -44.42270 1.37270
               CHANNELS 3 Zrotation Xrotation Yrotation
               JOINT RightFoot
               {
                    OFFSET 0.25355 -42.09240 -1.46059
                    CHANNELS 3 Zrotation Xrotation Yrotation
                    JOINT RightToes
                    {
                         OFFSET 0.04000 -4.41509 8.49910
                         CHANNELS 3 Zrotation Xrotation Yrotation
                         End Site
                         {
                              OFFSET -0.08000 -0.13745 9.77979
                         }
                    }
               }
          }
     }
}
MOTION
Frames: 6
Frame Time: 0.01667
12.06070 97.17400 -7.25333 -3.42939 -11.20670 -20.06650 -1.89976 10.89660 -1.89210 -1.97649 21.71540 -3.66968 -6.23992 4.93743 11.70520 -0.00000 -0.00000 0.00000 -126.53800 -62.36080 -97.13340 -56.08680 60.42600 -67.17250 16.05570 7.40894 -14.21760 19.96230 0.32506 -0.95420 79.20970 -4.01328 69.29690 20.83690 33.40500 98.04000 17.46840 11.96350 8.73979 13.34660 -1.94644 -14.42170 -17.92180 5.49814 53.03650 -1.55447 10.58140 0.16735 6.18368 -18.05510 -56.84400 -20.63360 8.10030 15.28120 30.37110 4.03741 -19.27570 -36.80490 8.07554 5.15754 10.53830 -48.38570 18.75700 
11.82140 97.14380 -7.52192 -3.72992 -11.13210 -19.67690 -1.70381 10.97940 -1.84379 -1.68202 21.87070 -3.57130 -6.97215 4.76909 12.10930 -0.00000 -0.00000 0.00000 -127.78100 -62.90810 -98.50890 -57.77100 60.63770 -65.67970 15.86030 7.48824 -13.86910 19.88880 0.41314 -0.55223 79.30010 -4.40995 69.54180 21.41530 33.77890 97.80480 17.38710 11.98870 8.95843 13.92140 -2.24166 -14.27940 -17.96410 5.66179 53.03590 -1.32948 11.34480 0.13589 5.93546 -18.94980 -57.49150 -19.90880 7.93833 15.39920 30.45070 4.45191 -19.37970 -36.41890 7.00681 4.74334 9.15400 -45.96470 16.83650 
11.60030 97.14980 -7.87080 -3.47956 -11.31200 -19.48950 -1.73626 11.08350 -1.63909 -1.95927 22.08040 -3.08584 -7.31724 4.45408 12.93790 -0.00000 -0.00000 0.00000 -127.14100 -63.03100 -98.46110 -56.25210 60.92780 -66.45170 16.25420 7.36560 -14.29410 19.47260 0.38196 -0.67429 79.56930 -3.88592 69.50040 22.80400 34.10150 97.10420 17.57110 11.98730 8.81498 13.55410 -2.10732 -13.64490 -17.30990 5.49274 52.50400 -1.30138 11.63040 0.13275 6.12618 -18.39660 -58.04880 -19.87480 7.48510 15.08590 30.53660 5.43318 -19.52620 -36.03920 6.52582 4.53128 8.75783 -45.49640 15.99690 
11.31950 97.15080 -8.29408 -2.95176 -11.68640 -18.44540 -1.76346 11.24490 -1.89486 -2.07460 22.39920 -3.56624 -8.08680 3.96284 13.93780 -0.00000 -0.00000 0.00000 -126.61800 -63.45630 -98.44270 -57.18000 59.96510 -65.37400 15.63210 7.49436 -14.09990 18.49160 0.49899 -0.06280 80.53210 -3.56018 69.46930 21.71880 33.93280 97.62500 17.62760 11.94900 8.53488 12.99230 -2.11457 -13.35600 -16.84770 5.17963 51.14630 -0.85400 12.15210 0.05849 6.40306 -17.51310 -58.08870 -20.16810 7.72382 14.41960 30.73670 5.62620 -20.28410 -36.79580 6.22303 4.53326 8.82668 -45.53710 16.18320 
10.96140 97.11260 -8.93347 -2.62175 -12.06000 -17.63950 -1.76002 11.36750 -1.73140 -2.37702 22.65460 -3.15190 -7.96144 3.62826 15.57080 -0.00000 -0.00000 0.00000 -125.96900 -63.55270 -98.03890 -57.05170 60.29620 -65.42100 15.13490 7.76132 -12.65280 18.78590 0.45622 -0.28807 80.12020 -3.38960 69.15670 22.01860 34.10590 97.76980 17.56450 11.93920 8.51815 12.70740 -2.04967 -13.46360 -16.37250 4.65815 50.56090 -0.20064 13.45190 -0.05952 6.14674 -18.28630 -57.68830 -20.10320 7.62223 14.32940 30.91340 5.96549 -21.53440 -37.74010 6.21414 4.65764 8.82103 -46.02860 15.71430 
10.58020 97.08540 -9.55577 -2.26339 -12.54780 -16.67080 -2.08145 11.55990 -1.63407 -2.56818 23.01690 -3.02871 -9.02519 3.62427 16.57100 -0.00000 -0.00000 0.00000 -127.71500 -64.14530 -99.53290 -59.98790 60.56390 -62.08100 14.70430 7.77703 -13.04650 18.81830 0.48337 -0.16137 80.38220 -3.79409 68.90330 21.26380 34.94530 97.72920 16.25630 11.87750 9.09836 12.28950 -2.08080 -13.03090 -15.69790 4.86840 48.49440 -2.78655 13.48670 0.41541 7.33725 -14.24810 -57.18750 -20.54900 8.02231 14.20740 31.83180 5.45770 -22.82820 -39.00450 6.31689 4.86608 9.25306 -46.81220 16.36480 
